<?xml version="1.0" encoding="UTF-8" standalone="no"?>
<svg width="15px" height="12px" viewBox="0 0 15 12" version="1.1" xmlns="http://www.w3.org/2000/svg" xmlns:xlink="http://www.w3.org/1999/xlink">
    <!-- Generator: Sketch 41.2 (35397) - http://www.bohemiancoding.com/sketch -->
    <title>Group 2</title>
    <desc>Created with Sketch.</desc>
    <defs></defs>
    <g id="Page-1" stroke="none" stroke-width="1" fill="none" fill-rule="evenodd">
        <g id="Group-2" transform="translate(7.500000, 6.000000) scale(-1, 1) translate(-7.500000, -6.000000) " fill="#6E6E6E">
            <g id="noun_793747_cc">
                <g id="Group">
                    <path d="M3.91304348,8.52631579 C2.47826087,8.52631579 1.30434783,7.38947368 1.30434783,6 C1.30434783,4.61052632 2.47826087,3.47368421 3.91304348,3.47368421 L7.30434783,3.47368421 L6.26086957,4.42105263 L7.17391304,5.30526316 L9.7826087,2.77894737 L7.17391304,0.252631579 L6.26086957,1.2 L7.23913043,2.14736842 L3.91304348,2.14736842 C1.76086957,2.14736842 0,3.85263158 0,5.93684211 C0,8.02105263 1.76086957,9.72631579 3.91304348,9.72631579 L3.91304348,8.52631579 Z" id="Shape"></path>
                </g>
            </g>
            <g id="noun_793747_cc-copy" transform="translate(10.000000, 7.000000) scale(-1, -1) translate(-10.000000, -7.000000) translate(5.000000, 2.000000)">
                <g id="Group">
                    <path d="M3.91304348,8.52631579 C2.47826087,8.52631579 1.30434783,7.38947368 1.30434783,6 C1.30434783,4.61052632 2.47826087,3.47368421 3.91304348,3.47368421 L7.30434783,3.47368421 L6.26086957,4.42105263 L7.17391304,5.30526316 L9.7826087,2.77894737 L7.17391304,0.252631579 L6.26086957,1.2 L7.23913043,2.14736842 L3.91304348,2.14736842 C1.76086957,2.14736842 -7.10542736e-14,3.85263158 -7.10542736e-14,5.93684211 C-7.10542736e-14,8.02105263 1.76086957,9.72631579 3.91304348,9.72631579 L3.91304348,8.52631579 Z" id="Shape"></path>
                </g>
            </g>
        </g>
    </g>
</svg>